<svg xmlns="http://www.w3.org/2000/svg" version="1.1" xmlns:xlink="http://www.w3.org/1999/xlink" xmlns:svgjs="http://svgjs.dev/svgjs" width="1407" height="468" preserveAspectRatio="none" viewBox="0 0 1407 468"><g mask="url(&quot;#SvgjsMask1183&quot;)" fill="none"><path d="M604.63-71.92C503.75-32.74 549.26 271.33 344.75 274.29 140.25 277.25-42.76 176.44-175 176.01" stroke="rgba(51, 121, 194, 0.19)" stroke-width="2"></path><path d="M664.39-79.5C592.31-72 621.13 76.72 424.79 83.69 228.45 90.66 71.44 236.24-54.41 238.13" stroke="rgba(51, 121, 194, 0.19)" stroke-width="2"></path><path d="M639.07-30.91C520.1 25.62 573.34 407.13 348.87 408.82 124.4 410.51-76.4 192.51-231.53 188.86" stroke="rgba(51, 121, 194, 0.19)" stroke-width="2"></path><path d="M1043.11-67.79C947.52-64.42 967.33 83 692.97 86.46 418.61 89.92 172.48 249.17-7.31 250.26" stroke="rgba(51, 121, 194, 0.19)" stroke-width="2"></path><path d="M971.76-15.81C809.93-7.6 684.25 277.08 393.64 277.24 103.03 277.4-33.62 105.93-184.48 104.08" stroke="rgba(51, 121, 194, 0.19)" stroke-width="2"></path></g><defs><mask id="SvgjsMask1183"><rect width="1407" height="468" fill="#ffffff"></rect></mask></defs></svg>